<mxfile host="Electron" agent="Mozilla/5.0 (Windows NT 10.0; Win64; x64) AppleWebKit/537.36 (KHTML, like Gecko) draw.io/24.7.8 Chrome/128.0.6613.36 Electron/32.0.1 Safari/537.36" version="24.7.8">
  <diagram id="vz-VHrGVzkWbuO2fDv-A" name="Page-1">
    <mxGraphModel dx="598" dy="348" grid="1" gridSize="1" guides="1" tooltips="1" connect="1" arrows="1" fold="1" page="1" pageScale="1" pageWidth="850" pageHeight="1100" math="0" shadow="0">
      <root>
        <mxCell id="0" />
        <mxCell id="1" parent="0" />
        <mxCell id="AtyzW_5TK0NcMT4Q1Xe--1" value="" style="html=1;shape=mxgraph.electrical.electro-mechanical.pushbutton;aspect=fixed;elSwitchState=off;direction=south;" parent="1" vertex="1">
          <mxGeometry x="141" y="200" width="15" height="56.25" as="geometry" />
        </mxCell>
        <mxCell id="AtyzW_5TK0NcMT4Q1Xe--7" value="" style="pointerEvents=1;verticalLabelPosition=bottom;shadow=0;dashed=0;align=center;html=1;verticalAlign=top;shape=mxgraph.electrical.resistors.resistor_2;rotation=0;direction=south;" parent="1" vertex="1">
          <mxGeometry x="139" y="132" width="10" height="48" as="geometry" />
        </mxCell>
        <mxCell id="AtyzW_5TK0NcMT4Q1Xe--10" value="V&lt;sub style=&quot;font-size: 12px;&quot;&gt;dd&lt;/sub&gt;" style="verticalLabelPosition=top;verticalAlign=bottom;shape=mxgraph.electrical.signal_sources.vdd;shadow=0;dashed=0;align=center;strokeWidth=1;fontSize=12;html=1;flipV=1;" parent="1" vertex="1">
          <mxGeometry x="136" y="124" width="16" height="9" as="geometry" />
        </mxCell>
        <mxCell id="AtyzW_5TK0NcMT4Q1Xe--12" value="" style="endArrow=none;html=1;rounded=0;entryX=1;entryY=0.5;entryDx=0;entryDy=0;entryPerimeter=0;exitX=0;exitY=0.8;exitDx=0;exitDy=0;" parent="1" target="AtyzW_5TK0NcMT4Q1Xe--7" edge="1" source="AtyzW_5TK0NcMT4Q1Xe--1">
          <mxGeometry width="50" height="50" relative="1" as="geometry">
            <mxPoint x="144" y="200" as="sourcePoint" />
            <mxPoint x="198" y="140" as="targetPoint" />
          </mxGeometry>
        </mxCell>
        <mxCell id="_3y9Jl15G2MGd013VSyB-1" value="" style="pointerEvents=1;verticalLabelPosition=bottom;shadow=0;dashed=0;align=center;html=1;verticalAlign=top;shape=mxgraph.electrical.signal_sources.protective_earth;" vertex="1" parent="1">
          <mxGeometry x="132.13" y="255" width="23.75" height="20" as="geometry" />
        </mxCell>
        <mxCell id="_3y9Jl15G2MGd013VSyB-4" value="" style="pointerEvents=1;fillColor=strokeColor;verticalLabelPosition=bottom;shadow=0;dashed=0;align=center;html=1;verticalAlign=top;shape=mxgraph.electrical.diodes.diode;" vertex="1" parent="1">
          <mxGeometry x="179.75" y="211" width="24.5" height="10" as="geometry" />
        </mxCell>
        <mxCell id="_3y9Jl15G2MGd013VSyB-5" value="" style="pointerEvents=1;verticalLabelPosition=bottom;shadow=0;dashed=0;align=center;html=1;verticalAlign=top;shape=mxgraph.electrical.resistors.resistor_2;rotation=0;direction=west;" vertex="1" parent="1">
          <mxGeometry x="168" y="187" width="48" height="10" as="geometry" />
        </mxCell>
        <mxCell id="_3y9Jl15G2MGd013VSyB-6" value="" style="verticalLabelPosition=bottom;shadow=0;dashed=0;align=center;html=1;verticalAlign=top;shape=mxgraph.electrical.logic_gates.schmitt_trigger;" vertex="1" parent="1">
          <mxGeometry x="232" y="177" width="40" height="30" as="geometry" />
        </mxCell>
        <mxCell id="_3y9Jl15G2MGd013VSyB-7" value="" style="pointerEvents=1;verticalLabelPosition=bottom;shadow=0;dashed=0;align=center;html=1;verticalAlign=top;shape=mxgraph.electrical.capacitors.capacitor_1;direction=south;" vertex="1" parent="1">
          <mxGeometry x="222" y="216" width="12" height="32" as="geometry" />
        </mxCell>
        <mxCell id="_3y9Jl15G2MGd013VSyB-8" value="" style="endArrow=none;html=1;rounded=0;entryX=1;entryY=0.5;entryDx=0;entryDy=0;entryPerimeter=0;" edge="1" parent="1" target="_3y9Jl15G2MGd013VSyB-5">
          <mxGeometry width="50" height="50" relative="1" as="geometry">
            <mxPoint x="144" y="192" as="sourcePoint" />
            <mxPoint x="203" y="194" as="targetPoint" />
          </mxGeometry>
        </mxCell>
        <mxCell id="_3y9Jl15G2MGd013VSyB-9" value="" style="endArrow=none;html=1;rounded=0;entryX=1;entryY=0.5;entryDx=0;entryDy=0;entryPerimeter=0;exitX=0;exitY=0.5;exitDx=0;exitDy=0;exitPerimeter=0;" edge="1" parent="1" source="_3y9Jl15G2MGd013VSyB-4" target="_3y9Jl15G2MGd013VSyB-5">
          <mxGeometry width="50" height="50" relative="1" as="geometry">
            <mxPoint x="162" y="210" as="sourcePoint" />
            <mxPoint x="203" y="194" as="targetPoint" />
            <Array as="points">
              <mxPoint x="168" y="216" />
            </Array>
          </mxGeometry>
        </mxCell>
        <mxCell id="_3y9Jl15G2MGd013VSyB-10" value="" style="endArrow=none;html=1;rounded=0;entryX=0;entryY=0.5;entryDx=0;entryDy=0;entryPerimeter=0;exitX=1;exitY=0.5;exitDx=0;exitDy=0;exitPerimeter=0;" edge="1" parent="1" source="_3y9Jl15G2MGd013VSyB-4" target="_3y9Jl15G2MGd013VSyB-5">
          <mxGeometry width="50" height="50" relative="1" as="geometry">
            <mxPoint x="153" y="244" as="sourcePoint" />
            <mxPoint x="203" y="194" as="targetPoint" />
            <Array as="points">
              <mxPoint x="216" y="216" />
            </Array>
          </mxGeometry>
        </mxCell>
        <mxCell id="_3y9Jl15G2MGd013VSyB-11" value="" style="endArrow=none;html=1;rounded=0;entryX=0;entryY=0.5;entryDx=0;entryDy=0;entryPerimeter=0;exitX=0;exitY=0.5;exitDx=0;exitDy=0;exitPerimeter=0;" edge="1" parent="1" source="_3y9Jl15G2MGd013VSyB-6" target="_3y9Jl15G2MGd013VSyB-5">
          <mxGeometry width="50" height="50" relative="1" as="geometry">
            <mxPoint x="153" y="244" as="sourcePoint" />
            <mxPoint x="203" y="194" as="targetPoint" />
          </mxGeometry>
        </mxCell>
        <mxCell id="_3y9Jl15G2MGd013VSyB-12" value="" style="pointerEvents=1;verticalLabelPosition=bottom;shadow=0;dashed=0;align=center;html=1;verticalAlign=top;shape=mxgraph.electrical.signal_sources.protective_earth;" vertex="1" parent="1">
          <mxGeometry x="216" y="255" width="24" height="20" as="geometry" />
        </mxCell>
        <mxCell id="_3y9Jl15G2MGd013VSyB-13" value="" style="endArrow=none;html=1;rounded=0;entryX=0;entryY=0.5;entryDx=0;entryDy=0;entryPerimeter=0;" edge="1" parent="1" target="_3y9Jl15G2MGd013VSyB-7">
          <mxGeometry width="50" height="50" relative="1" as="geometry">
            <mxPoint x="228" y="192" as="sourcePoint" />
            <mxPoint x="209" y="210" as="targetPoint" />
          </mxGeometry>
        </mxCell>
        <mxCell id="_3y9Jl15G2MGd013VSyB-15" value="" style="endArrow=none;html=1;rounded=0;entryX=1;entryY=0.5;entryDx=0;entryDy=0;entryPerimeter=0;exitX=0.5;exitY=0;exitDx=0;exitDy=0;exitPerimeter=0;" edge="1" parent="1" source="_3y9Jl15G2MGd013VSyB-12" target="_3y9Jl15G2MGd013VSyB-7">
          <mxGeometry width="50" height="50" relative="1" as="geometry">
            <mxPoint x="221" y="215" as="sourcePoint" />
            <mxPoint x="271" y="165" as="targetPoint" />
          </mxGeometry>
        </mxCell>
      </root>
    </mxGraphModel>
  </diagram>
</mxfile>
